<?xml version="1.0" standalone="no"?><!DOCTYPE svg PUBLIC "-//W3C//DTD SVG 1.1//EN" "http://www.w3.org/Graphics/SVG/1.1/DTD/svg11.dtd"><svg t="1630465617486" class="icon" viewBox="0 0 1024 1024" version="1.1" xmlns="http://www.w3.org/2000/svg" p-id="19575" width="256" height="256" xmlns:xlink="http://www.w3.org/1999/xlink"><defs><style type="text/css"></style></defs><path d="M431.9 349.6c0 159 128.9 287.9 287.9 287.9s287.9-128.9 287.9-287.9S878.8 61.7 719.8 61.7 431.9 190.6 431.9 349.6z m0 0" fill="#E9EAEB" p-id="19576"></path><path d="M272 189.7h112v32h-112v-32z m-64 0h32v32h-32v-32z m-64 0h32v32h-32v-32z m-32-80h32v32h-32v-32z m-63.9 0h32v32h-32v-32z m575.7 32H456.1l-4.2-9.5c-4.9-11.4-15.9-19.1-28.3-19.7-3.9-0.1-7.7 0.5-11.3 1.8l-15.2 6.3-5.8-15.3c-8.8-23.3-31-38.7-55.8-38.8-32.9 0-59.6 36.1-59.6 59.6v15.6h-99.8v-31.9h69.8c8.6-37.3 45.5-75.6 89.8-75.6 33 0.1 63.5 18 79.7 46.7 2.8-0.4 5.6-0.5 8.4-0.4 21.2 0.4 40.8 11.4 52.3 29.2h147.8v32z m383.9 79.9h-71.9l-4.8-7.3c-6.3-9.6-22.6-25.1-43.4-22.6L877.2 193l-5.3-9.1c-8.7-15.8-25.1-25.9-43.1-26.5-26.5 1-48 21.8-50 48.3v15.9h-171v-31.8h140.9c9.2-37.1 42.2-63.4 80.4-64.1 25.9 0.4 50.1 13.1 65.3 34.1 22.9 1.2 44.2 12.2 58.5 30h55.3l-0.5 31.8z m-463.8-31.9h32v32h-32v-32z m-64 0h32v32h-32v-32zM128 957.4h175.9v32H128v-32z m239.9 0h175.9v32H367.9v-32z m239.9 0h175.9v32H607.8v-32z m240 0h175.9v32H847.8v-32z m-783.8 0h32v32h-32v-32z m-64 0h32v32h-32v-32z m0 0" fill="#BCC0C4" p-id="19577"></path><path d="M943.7 621.6l-78.1-97.9c-9-9-21.2-14-33.9-14h-112v287.9h227.1c11.9 0 23.3-4.7 31.7-13.1 8.4-8.4 13.1-19.8 13.1-31.7v-83.3c0-12.7-5.1-24.9-14-33.9s-21.1-14-33.9-14z m0 0" fill="#A3D4FF" p-id="19578"></path><path d="M946.9 813.5H703.8V493.3h128c17-0.1 33.3 6.7 45.2 18.7l1.2 1.3 73.6 92.8c31.9 4.1 55.8 31.2 55.8 63.4v83.2c0.1 33.6-27.2 60.8-60.7 60.8z m-211.1-32h211.1c15.9 0 28.8-12.9 28.8-28.7v-83.2c0-8.5-3.4-16.6-9.4-22.6s-14.1-9.3-22.6-9.3h-7.8l-82.2-103.2c-5.9-5.6-13.8-8.8-21.9-8.8h-96v255.8z m0 0" fill="#2A5082" p-id="19579"></path><path d="M783.7 653.5h80l15.9-16-48-64h-48v80z m0 0" fill="#FFFFFF" p-id="19580"></path><path d="M870.4 669.5H768V557.6h72l60.7 81.4-30.3 30.5z m-70.6-32h57.1l1.5-1.5-34.9-46.5h-24l0.3 48z m0 0" fill="#2A5082" p-id="19581"></path><path d="M767.8 797.4c0 35.2 28.7 63.8 64 63.8 35.4 0 64-28.6 64-63.8 0-35.2-28.7-63.8-64-63.8s-64 28.5-64 63.8z m0 0" fill="#E9EAEB" p-id="19582"></path><path d="M831.8 877.2c-44-0.4-79.3-36.2-79.1-80.2 0.2-44 36-79.4 80-79.3 44 0.1 79.5 35.8 79.5 79.7-0.1 21.2-8.6 41.6-23.7 56.5-15 15.1-35.4 23.4-56.7 23.3z m0-127.5c-26.4 0.2-47.6 21.6-47.5 48 0.1 26.4 21.5 47.7 47.9 47.6 26.4-0.1 47.7-21.4 47.7-47.8 0-12.7-5.1-24.9-14.1-33.9s-21.2-14-34-13.9z m0 0" fill="#2A5082" p-id="19583"></path><path d="M208 637.5V349.6h511.8v447.9H208v-112" fill="#FFFFFF" p-id="19584"></path><path d="M735.8 813.5H192v-128h32v96h479.8V365.6H224v271.9h-32V333.6h543.8v479.9z m0 0" fill="#2A5082" p-id="19585"></path><path d="M288 797.4c0 22.8 12.2 43.9 32 55.3 19.8 11.4 44.2 11.4 64 0 19.8-11.4 32-32.5 32-55.3s-12.2-43.9-32-55.3a64.158 64.158 0 0 0-64 0c-19.8 11.4-32 32.5-32 55.3z m0 0" fill="#E9EAEB" p-id="19586"></path><path d="M352 877.2c-44-0.4-79.3-36.2-79.1-80.2 0.2-44 36-79.4 80-79.3 44 0.1 79.5 35.8 79.5 79.7-0.1 21.2-8.6 41.6-23.7 56.5-15.1 15.1-35.5 23.4-56.7 23.3z m0-127.5c-26.4 0.2-47.6 21.6-47.5 48 0.1 26.4 21.5 47.7 47.9 47.6 26.4-0.1 47.7-21.4 47.7-47.8 0-12.7-5.1-24.9-14.1-33.9-9.1-9-21.3-14-34-13.9z m-224-352.1h80v32h-80v-32zM0 509.5h143.9v32H0v-32z m64-111.9h32v32h-32v-32z m-64 223.9h224v32H0v-32z m0 0" fill="#2A5082" p-id="19587"></path></svg>